            <svg xmlns="http://www.w3.org/2000/svg" preserveAspectRatio="xMidYMid meet" viewBox="0 0 300 88.67435455322266" overflow="visible">
              <defs id="SvgjsDefs1058"></defs>
              <g id="SvgjsG1059" transform="scale(0.971880264351432)" opacity="1">
                <g id="SvgjsG1060" className="NaXf3ynr-" transform="translate(0, 0) scale(1)" light-content="false" fill="#34baab">
                  <path d="M0 0 h 308.67999999999995 v 65.68 h -308.67999999999995 Z"></path>
                </g>
                <g id="SvgjsG1061" className="text" transform="translate(154.75999450683594, 53.84000015258789) scale(1)" light-content="true" fill="#c4c8c5">
                  <path d="M-143.76 -42L-143.76 0L-139.08 0L-139.08 -39.84L-138.36 -39.84L-132.72 0L-123.6 0L-117.96 -39.84L-117.24 -39.84L-117.24 0L-112.56 0L-112.56 -42L-122.16 -42L-127.8 -2.16L-128.52 -2.16L-134.16 -42Z M-100.2 -25.68L-100.2 -16.32C-100.2 -10.72 -98.9 -6.46 -96.3 -3.54C-93.7 -0.62 -90.08 0.84 -85.44 0.84C-80.8 0.84 -77.18 -0.62 -74.58 -3.54C-71.98 -6.46 -70.68 -10.72 -70.68 -16.32L-70.68 -25.68C-70.68 -31.12 -71.98 -35.34 -74.58 -38.34C-77.18 -41.34 -80.8 -42.84 -85.44 -42.84C-90.08 -42.84 -93.7 -41.34 -96.3 -38.34C-98.9 -35.34 -100.2 -31.12 -100.2 -25.68ZM-85.44 -3.84C-88.68 -3.84 -91.11 -4.95 -92.73 -7.17C-94.35 -9.39 -95.16 -12.56 -95.16 -16.68L-95.16 -25.32C-95.16 -29.16 -94.35 -32.26 -92.73 -34.62C-91.11 -36.98 -88.68 -38.16 -85.44 -38.16C-82.2 -38.16 -79.77 -36.98 -78.15 -34.62C-76.53 -32.26 -75.72 -29.16 -75.72 -25.32L-75.72 -16.68C-75.72 -12.56 -76.53 -9.39 -78.15 -7.17C-79.77 -4.95 -82.2 -3.84 -85.44 -3.84Z M-34.5 -2.16L-46.62 -42L-56.7 -42L-56.7 0L-51.66 0L-51.66 -39.84L-50.94 -39.84L-38.82 0L-28.74 0L-28.74 -42L-33.78 -42L-33.78 -2.16Z M-14.76 -42L-14.76 -37.32L-2.52 -37.32L-2.52 0L2.52 0L2.52 -37.32L14.76 -37.32L14.76 -42Z M30 -42L30 0L55.8 0L55.8 -4.68L35.04 -4.68L35.04 -18.72L55.08 -18.72L55.08 -23.4L35.04 -23.4L35.04 -37.32L55.44 -37.32L55.44 -42Z M98.58 0L98.58 -15.12C98.58 -16.52 98.24 -17.6 97.56 -18.36C96.88 -19.12 95.94 -19.6 94.74 -19.8L94.74 -20.52C96.54 -21.36 97.87 -22.56 98.73 -24.12C99.59 -25.68 100.02 -27.24 100.02 -28.8L100.02 -30.6C100.02 -32.12 99.75 -33.57 99.21 -34.95C98.67 -36.33 97.87 -37.54 96.81 -38.58C95.75 -39.62 94.42 -40.45 92.82 -41.07C91.22 -41.69 89.34 -42 87.18 -42L72.18 -42L72.18 0L77.22 0L77.22 -17.28L90.3 -17.28C91.5 -17.28 92.34 -17 92.82 -16.44C93.3 -15.88 93.54 -15.08 93.54 -14.04L93.54 0ZM77.22 -21.96L77.22 -37.32L86.58 -37.32C89.42 -37.32 91.53 -36.67 92.91 -35.37C94.29 -34.07 94.98 -32.36 94.98 -30.24L94.98 -29.16C94.98 -26.8 94.29 -25.01 92.91 -23.79C91.53 -22.57 89.42 -21.96 86.58 -21.96Z M113.4 -25.68L113.4 -16.32C113.4 -10.72 114.7 -6.46 117.3 -3.54C119.9 -0.62 123.52 0.84 128.16 0.84C132.8 0.84 136.42 -0.62 139.02 -3.54C141.62 -6.46 142.92 -10.72 142.92 -16.32L142.92 -25.68C142.92 -31.12 141.62 -35.34 139.02 -38.34C136.42 -41.34 132.8 -42.84 128.16 -42.84C123.52 -42.84 119.9 -41.34 117.3 -38.34C114.7 -35.34 113.4 -31.12 113.4 -25.68ZM128.16 -3.84C124.92 -3.84 122.49 -4.95 120.87 -7.17C119.25 -9.39 118.44 -12.56 118.44 -16.68L118.44 -25.32C118.44 -29.16 119.25 -32.26 120.87 -34.62C122.49 -36.98 124.92 -38.16 128.16 -38.16C131.4 -38.16 133.83 -36.98 135.45 -34.62C137.07 -32.26 137.88 -29.16 137.88 -25.32L137.88 -16.68C137.88 -12.56 137.07 -9.39 135.45 -7.17C133.83 -4.95 131.4 -3.84 128.16 -3.84Z"></path>
                  </g>
                  <g id="SvgjsG1062" className="text" transform="translate(154.77000427246094, 90.9599997329712) scale(1)" light-content="false" fill="#c4c8c5">
                  <path d="M-132.33 0L-131.85 -14L-134.25 -14L-134.57 -3.36L-134.57 -1.56L-135.05 -1.56L-135.05 -3.36L-135.69 -14L-139.93 -14L-140.57 -3.36L-140.57 -1.56L-141.05 -1.56L-141.05 -3.36L-141.37 -14L-143.77 -14L-143.29 0L-138.69 0L-138.05 -10.64L-138.05 -12.56L-137.57 -12.56L-137.57 -10.64L-136.93 0Z M-119.32 -14L-119.32 0L-110.24 0L-110.24 -2.52L-116.68 -2.52L-116.68 -5.76L-110.72 -5.76L-110.72 -8.28L-116.68 -8.28L-116.68 -11.48L-110.48 -11.48L-110.48 -14Z M-97.07 -2.52L-97.07 0L-90.93 0C-90.27 0 -89.68 -0.09 -89.16 -0.28C-88.65 -0.47 -88.22 -0.72 -87.86 -1.05C-87.51 -1.38 -87.24 -1.76 -87.06 -2.21C-86.88 -2.66 -86.79 -3.14 -86.79 -3.66L-86.79 -3.9C-86.79 -4.7 -87.02 -5.34 -87.46 -5.83C-87.91 -6.32 -88.47 -6.65 -89.15 -6.84L-89.15 -7.2C-88.47 -7.39 -87.91 -7.72 -87.46 -8.2C-87.02 -8.68 -86.79 -9.32 -86.79 -10.12L-86.79 -10.36C-86.79 -10.88 -86.88 -11.36 -87.06 -11.81C-87.24 -12.26 -87.51 -12.64 -87.86 -12.96C-88.22 -13.28 -88.65 -13.53 -89.16 -13.72C-89.68 -13.91 -90.27 -14 -90.93 -14L-97.07 -14L-97.07 -11.48L-95.75 -11.48L-95.75 -2.52ZM-93.11 -2.52L-93.11 -5.76L-91.19 -5.76C-90.63 -5.76 -90.18 -5.64 -89.83 -5.4C-89.49 -5.16 -89.31 -4.76 -89.31 -4.2L-89.31 -4.08C-89.31 -3.52 -89.49 -3.12 -89.83 -2.88C-90.18 -2.64 -90.63 -2.52 -91.19 -2.52ZM-93.11 -8.28L-93.11 -11.48L-91.19 -11.48C-90.63 -11.48 -90.18 -11.36 -89.83 -11.13C-89.49 -10.9 -89.31 -10.5 -89.31 -9.94L-89.31 -9.82C-89.31 -9.26 -89.49 -8.86 -89.83 -8.63C-90.18 -8.4 -90.63 -8.28 -91.19 -8.28Z M-72.02 -6.64L-72.02 -4.36L-65.78 -4.36L-65.78 -6.64Z M-51.14 -14L-51.14 -11.48L-49.82 -11.48L-49.82 -2.54L-51.14 -2.54L-51.14 0L-46.06 0C-44.32 0 -43.04 -0.4 -42.2 -1.21C-41.36 -2.02 -40.94 -3.27 -40.94 -4.96L-40.94 -9.04C-40.94 -10.73 -41.36 -11.98 -42.2 -12.79C-43.04 -13.6 -44.32 -14 -46.06 -14ZM-46.06 -2.52L-47.18 -2.52L-47.18 -11.48L-46.06 -11.48C-45.14 -11.48 -44.49 -11.27 -44.13 -10.86C-43.76 -10.45 -43.58 -9.84 -43.58 -9.04L-43.58 -5.2C-43.58 -4.28 -43.76 -3.6 -44.13 -3.17C-44.49 -2.74 -45.14 -2.52 -46.06 -2.52Z M-27.45 -14L-27.45 0L-18.37 0L-18.37 -2.52L-24.81 -2.52L-24.81 -5.76L-18.85 -5.76L-18.85 -8.28L-24.81 -8.28L-24.81 -11.48L-18.61 -11.48L-18.61 -14Z M-5.64 -14L-2.48 0L2.48 0L5.64 -14L2.92 -14L0.18 -1.32L-0.18 -1.32L-2.92 -14Z M18.49 -14L18.49 0L27.57 0L27.57 -2.52L21.13 -2.52L21.13 -5.76L27.09 -5.76L27.09 -8.28L21.13 -8.28L21.13 -11.48L27.33 -11.48L27.33 -14Z M41.46 -14L41.46 0L50.46 0L50.46 -2.52L44.1 -2.52L44.1 -14Z M63.74 -8.56L63.74 -5.44C63.74 -3.57 64.2 -2.15 65.11 -1.18C66.03 -0.21 67.29 0.28 68.9 0.28C70.52 0.28 71.78 -0.21 72.69 -1.18C73.61 -2.15 74.06 -3.57 74.06 -5.44L74.06 -8.56C74.06 -10.37 73.61 -11.78 72.69 -12.78C71.78 -13.78 70.52 -14.28 68.9 -14.28C67.29 -14.28 66.03 -13.78 65.11 -12.78C64.2 -11.78 63.75 -10.37 63.74 -8.56ZM68.9 -2.12C68.42 -2.12 68.02 -2.2 67.7 -2.35C67.38 -2.5 67.12 -2.72 66.92 -3C66.72 -3.28 66.58 -3.61 66.5 -4C66.42 -4.39 66.38 -4.81 66.38 -5.28L66.38 -8.72C66.38 -9.16 66.43 -9.57 66.52 -9.96C66.62 -10.35 66.76 -10.68 66.96 -10.96C67.16 -11.24 67.42 -11.46 67.74 -11.63C68.06 -11.8 68.45 -11.88 68.9 -11.88C69.36 -11.88 69.74 -11.8 70.06 -11.63C70.38 -11.46 70.64 -11.24 70.84 -10.96C71.04 -10.68 71.19 -10.35 71.28 -9.96C71.38 -9.57 71.42 -9.16 71.42 -8.72L71.42 -5.28C71.42 -4.81 71.38 -4.39 71.3 -4C71.22 -3.61 71.08 -3.28 70.88 -3C70.68 -2.72 70.42 -2.5 70.1 -2.35C69.78 -2.2 69.38 -2.12 68.9 -2.12Z M89.83 -5.28L92.67 -5.28C93.39 -5.28 94.02 -5.4 94.55 -5.64C95.09 -5.88 95.53 -6.2 95.88 -6.59C96.24 -6.98 96.5 -7.43 96.68 -7.93C96.86 -8.43 96.95 -8.94 96.95 -9.46L96.95 -9.94C96.95 -10.45 96.86 -10.94 96.68 -11.43C96.5 -11.92 96.24 -12.35 95.88 -12.73C95.53 -13.11 95.09 -13.42 94.55 -13.65C94.02 -13.88 93.39 -14 92.67 -14L87.19 -14L87.19 0L89.83 0ZM89.83 -7.8L89.83 -11.48L92.41 -11.48C93 -11.48 93.46 -11.32 93.8 -11C94.14 -10.68 94.31 -10.27 94.31 -9.76L94.31 -9.52C94.31 -9.01 94.14 -8.6 93.8 -8.28C93.46 -7.96 93 -7.8 92.41 -7.8Z M110.36 -14L110.36 0L119.44 0L119.44 -2.52L113 -2.52L113 -5.76L118.96 -5.76L118.96 -8.28L113 -8.28L113 -11.48L119.2 -11.48L119.2 -14Z M142.55 0L142.55 -4.84C142.55 -5.31 142.41 -5.69 142.14 -6C141.87 -6.31 141.5 -6.49 141.03 -6.54L141.03 -6.9C141.67 -7.17 142.14 -7.55 142.45 -8.05C142.76 -8.55 142.91 -9.09 142.91 -9.66L142.91 -10.14C142.91 -10.67 142.81 -11.17 142.62 -11.64C142.43 -12.11 142.15 -12.52 141.78 -12.87C141.41 -13.22 140.96 -13.5 140.41 -13.7C139.86 -13.9 139.23 -14 138.51 -14L133.15 -14L133.15 0L135.79 0L135.79 -5.28L138.83 -5.28C139.22 -5.28 139.49 -5.18 139.66 -4.98C139.83 -4.78 139.91 -4.52 139.91 -4.2L139.91 0ZM135.79 -7.8L135.79 -11.48L138.31 -11.48C138.95 -11.48 139.44 -11.31 139.77 -10.97C140.1 -10.63 140.27 -10.23 140.27 -9.76L140.27 -9.52C140.27 -8.97 140.1 -8.55 139.77 -8.25C139.44 -7.95 138.95 -7.8 138.31 -7.8Z"></path>
                </g>
              </g>
            </svg>